<svg width="22" height="23" viewBox="0 0 22 23" fill="none" xmlns="http://www.w3.org/2000/svg">
<path fill-rule="evenodd" clip-rule="evenodd" d="M6.45662 0.141138C4.66595 0.225605 3.11389 0.6833 1.86064 1.98798C0.603014 3.29952 0.170656 4.92854 0.0896593 6.78113C0.03931 7.93743 -0.255106 16.673 0.598638 18.9639C1.17437 20.5094 2.30828 21.6978 3.80015 22.3016C4.49627 22.5847 5.29093 22.7763 6.45662 22.8322C16.2035 23.2934 19.8166 23.0423 21.3402 18.9639C21.6105 18.2379 21.7966 17.4079 21.8481 16.1922C22.2935 5.97619 21.7758 3.7618 20.0771 1.98798C18.7297 0.582848 17.1448 -0.373658 6.45662 0.141138ZM6.54635 20.7776C5.47917 20.7274 4.90017 20.5415 4.5138 20.3851C3.54184 19.9902 2.81179 19.2301 2.43636 18.2199C1.7862 16.4792 2.00183 8.21157 2.05984 6.87378C2.11676 5.56338 2.37069 4.36577 3.25508 3.4412C4.34962 2.29974 5.76376 1.74032 15.3924 2.19462C16.649 2.25397 17.7972 2.5189 18.6838 3.4412C19.7783 4.58265 20.3212 6.07244 19.879 16.1001C19.8308 17.2131 19.6524 17.8169 19.5025 18.2199C18.5119 20.8738 16.2331 21.2422 6.54635 20.7776ZM15.4986 5.39305C15.4986 6.1487 16.0864 6.76316 16.8121 6.76316C17.5378 6.76316 18.1266 6.1487 18.1266 5.39305C18.1266 4.63741 17.5378 4.0235 16.8121 4.0235C16.0864 4.0235 15.4986 4.63741 15.4986 5.39305ZM5.34893 11.4861C5.34893 14.7233 7.8653 17.3478 10.9694 17.3478C14.0735 17.3478 16.5899 14.7233 16.5899 11.4861C16.5899 8.24895 14.0735 5.62608 10.9694 5.62608C7.8653 5.62608 5.34893 8.24895 5.34893 11.4861ZM7.3213 11.4861C7.3213 9.38585 8.95436 7.68181 10.9694 7.68181C12.9845 7.68181 14.6175 9.38585 14.6175 11.4861C14.6175 13.5875 12.9845 15.2921 10.9694 15.2921C8.95436 15.2921 7.3213 13.5875 7.3213 11.4861Z" fill="#171F84"/>
</svg>
