<svg width="17" height="17" viewBox="0 0 17 17" fill="none" xmlns="http://www.w3.org/2000/svg">
<path fill-rule="evenodd" clip-rule="evenodd" d="M6.29115 1.52756C6.0918 1.59072 5.89491 1.6625 5.70107 1.74278C4.8137 2.11035 4.00741 2.64909 3.32825 3.32825C2.64909 4.00741 2.11035 4.8137 1.74278 5.70107C1.45109 6.4053 1.27173 7.14965 1.21012 7.90698H4.75284C4.77814 7.04045 4.85882 6.1865 4.99292 5.37719C5.15733 4.38488 5.40024 3.47048 5.71296 2.68868C5.88369 2.26185 6.07659 1.87111 6.29115 1.52756ZM8.5 0C7.38377 0 6.27846 0.219861 5.24719 0.64702C4.21592 1.07419 3.27889 1.70029 2.48959 2.48959C1.70029 3.27889 1.07419 4.21592 0.647028 5.24719C0.219861 6.27846 0 7.38377 0 8.5C0 9.61623 0.219861 10.7215 0.64702 11.7528C1.07419 12.7841 1.70029 13.7211 2.48959 14.5104C3.27889 15.2997 4.21592 15.9258 5.24719 16.353C6.27846 16.7801 7.38377 17 8.5 17C9.61623 17 10.7215 16.7801 11.7528 16.353C12.7841 15.9258 13.7211 15.2997 14.5104 14.5104C15.2997 13.7211 15.9258 12.7841 16.353 11.7528C16.7801 10.7215 17 9.61623 17 8.5C17 7.38377 16.7801 6.27846 16.353 5.24719C15.9258 4.21592 15.2997 3.27889 14.5104 2.48959C13.7211 1.70029 12.7841 1.07419 11.7528 0.647028C10.7215 0.219861 9.61623 0 8.5 0ZM8.5 1.18605C8.29339 1.18605 8.02653 1.28551 7.71626 1.60686C7.40362 1.93058 7.09066 2.43793 6.81418 3.12916C6.53951 3.81582 6.31649 4.64475 6.16301 5.57107C6.03987 6.31427 5.96436 7.10292 5.93942 7.90698H11.0606C11.0356 7.10292 10.9601 6.31427 10.837 5.57107C10.6835 4.64475 10.4605 3.81583 10.1858 3.12917C9.90934 2.43793 9.59638 1.93058 9.28374 1.60686C8.97347 1.28551 8.70661 1.18605 8.5 1.18605ZM12.2472 7.90698C12.2219 7.04045 12.1412 6.18651 12.0071 5.37719C11.8427 4.38488 11.5998 3.47048 11.2871 2.68868C11.1163 2.26185 10.9234 1.87111 10.7088 1.52756C10.9082 1.59072 11.1051 1.6625 11.2989 1.74278C12.1863 2.11035 12.9926 2.64909 13.6717 3.32825C14.3509 4.00742 14.8896 4.8137 15.2572 5.70107C15.5489 6.4053 15.7282 7.14965 15.7898 7.90698H12.2472ZM11.0606 9.09302H5.93942C5.96436 9.89708 6.03987 10.6857 6.16301 11.4289C6.31649 12.3553 6.53951 13.1842 6.81418 13.8708C7.09066 14.562 7.40362 15.0694 7.71626 15.3931C8.02653 15.7145 8.29339 15.814 8.5 15.814C8.70661 15.814 8.97347 15.7145 9.28374 15.3931C9.59638 15.0694 9.90934 14.562 10.1858 13.8708C10.4605 13.1842 10.6835 12.3553 10.837 11.4289C10.9601 10.6857 11.0356 9.89708 11.0606 9.09302ZM10.7088 15.4725C10.9234 15.1289 11.1163 14.7381 11.2871 14.3113C11.5998 13.5295 11.8427 12.6151 12.0071 11.6228C12.1412 10.8135 12.2219 9.95955 12.2472 9.09302H15.7898C15.7282 9.85035 15.5489 10.5947 15.2572 11.2989C14.8896 12.1863 14.3509 12.9926 13.6717 13.6717C12.9926 14.3509 12.1863 14.8896 11.2989 15.2572C11.1051 15.3375 10.9082 15.4093 10.7088 15.4725ZM6.29115 15.4725C6.07659 15.1289 5.88369 14.7381 5.71296 14.3113C5.40024 13.5295 5.15733 12.6151 4.99292 11.6228C4.85882 10.8135 4.77814 9.95955 4.75284 9.09302H1.21012C1.27173 9.85035 1.45109 10.5947 1.74278 11.2989C2.11035 12.1863 2.64909 12.9926 3.32825 13.6717C4.00741 14.3509 4.8137 14.8896 5.70107 15.2572C5.89491 15.3375 6.0918 15.4093 6.29115 15.4725Z" fill="#1C238D"/>
</svg>
