<svg width="15" height="14" viewBox="0 0 15 14" fill="none" xmlns="http://www.w3.org/2000/svg">
<path d="M10.4635 8.9816L10.0839 9.35449C10.0839 9.35449 9.18174 10.241 6.71924 7.82124C4.25676 5.40155 5.15891 4.51507 5.15891 4.51507L5.39791 4.2802C5.98674 3.70164 6.04224 2.77275 5.52849 2.09463L4.47771 0.707477C3.84189 -0.131834 2.6133 -0.242706 1.88454 0.473388L0.57654 1.75867C0.21519 2.11374 -0.0269598 2.57402 0.00240683 3.08463C0.0775318 4.39092 0.675589 7.20153 4.01279 10.4808C7.55174 13.9582 10.8723 14.0964 12.2302 13.9713C12.6597 13.9318 13.0332 13.7156 13.3342 13.4198L14.5181 12.2566C15.3172 11.4714 15.0918 10.1252 14.0694 9.57602L12.4773 8.7207C11.806 8.36008 10.9882 8.46599 10.4635 8.9816Z" fill="#1C238D"/>
</svg>
