<svg width="24" height="19" viewBox="0 0 24 19" fill="none" xmlns="http://www.w3.org/2000/svg">
<path fill-rule="evenodd" clip-rule="evenodd" d="M7.548 19C16.6044 19 21.558 11.6891 21.558 5.34995C21.558 5.14184 21.558 4.9353 21.5436 4.72952C22.5072 4.0514 23.3388 3.20945 24 2.24606C23.1024 2.63423 22.1484 2.88878 21.1728 3.00102C22.2 2.40124 22.9692 1.45895 23.3376 0.347081C22.3704 0.905938 21.3132 1.30036 20.2104 1.51198C18.3456 -0.419475 15.2268 -0.513055 13.2432 1.30382C11.9652 2.47532 11.4216 4.222 11.8188 5.88805C7.86 5.69397 4.1712 3.87245 1.6704 0.875897C0.3636 3.06806 1.032 5.87142 3.1956 7.27909C2.412 7.25687 1.6452 7.05132 0.96 6.67953V6.74041C0.9612 9.02379 2.6136 10.9899 4.9104 11.4423C4.1856 11.6353 3.4248 11.6632 2.688 11.5241C3.3324 13.4789 5.1816 14.8179 7.2876 14.8565C5.544 16.1916 3.39 16.9166 1.1724 16.9143C0.7812 16.9131 0.39 16.8909 0 16.8453C2.2524 18.253 4.872 19 7.548 18.9965" fill="#171F84"/>
</svg>
