<svg width="26" height="18" viewBox="0 0 26 18" fill="none" xmlns="http://www.w3.org/2000/svg">
<path fill-rule="evenodd" clip-rule="evenodd" d="M10.385 12.325V5.10981C12.9748 6.31508 14.9807 7.47939 17.353 8.73467C15.3963 9.80787 12.9748 11.012 10.385 12.325ZM24.8183 1.52136C24.3716 0.939245 23.6101 0.486114 22.7995 0.336097C20.4168 -0.111396 5.55228 -0.112669 3.1709 0.336097C2.52084 0.45662 1.94199 0.747941 1.44473 1.20056C-0.650471 3.12386 0.00606603 13.4379 0.511091 15.1086C0.723459 15.8318 0.997997 16.3533 1.34374 16.6957C1.7892 17.1483 2.39911 17.4599 3.09967 17.5997C5.06149 18.001 15.1684 18.2254 22.7581 17.66C23.4573 17.5394 24.0763 17.2178 24.5645 16.7459C26.5017 14.8303 26.3696 3.93703 24.8183 1.52136Z" fill="#171F84"/>
</svg>
